HIERARCHY
ROOT Hips
{
	OFFSET -3.958830 18.904000 13.208200
	CHANNELS 6 Xposition Yposition Zposition Zrotation Yrotation Xrotation 
	JOINT LHipJoint
	{
		OFFSET 0.000000 0.000000 0.000000
		CHANNELS 3 Zrotation Yrotation Xrotation
		JOINT LeftUpLeg
		{
			OFFSET 1.800000 -1.400000 0.085000
			CHANNELS 3 Zrotation Yrotation Xrotation
			JOINT LeftLeg
			{
				OFFSET 2.215000 -6.000000 0.000000
				CHANNELS 3 Zrotation Yrotation Xrotation
				JOINT LeftFoot
				{
					OFFSET 2.500000 -6.900000 0.000000
					CHANNELS 3 Zrotation Yrotation Xrotation
					JOINT LeftToeBase
					{
						OFFSET 0.200000 -0.500000 1.950000
						CHANNELS 3 Zrotation Yrotation Xrotation
						End Site
						{
							OFFSET 0.000000 0.000000 0.000000
						}
					}
				}
			}
		}
	}
	JOINT RHipJoint
	{
		OFFSET 0.000000 0.000000 0.000000
		CHANNELS 3 Zrotation Yrotation Xrotation
		JOINT RightUpLeg
		{
			OFFSET -1.800000 -1.400000 0.085000
			CHANNELS 3 Zrotation Yrotation Xrotation
			JOINT RightLeg
			{
				OFFSET -2.215000 -6.000000 0.000000
				CHANNELS 3 Zrotation Yrotation Xrotation
				JOINT RightFoot
				{
					OFFSET -2.500000 -6.900000 0.000000
					CHANNELS 3 Zrotation Yrotation Xrotation
					JOINT RightToeBase
					{
						OFFSET -0.200000 -0.500000 1.950000
						CHANNELS 3 Zrotation Yrotation Xrotation
						End Site
						{
							OFFSET 0.000000 0.000000 0.000000
						}
					}
				}
			}
		}
	}
	JOINT LowerBack
	{
		OFFSET 0.000000 0.000000 0.000000
		CHANNELS 3 Zrotation Yrotation Xrotation
		JOINT Spine
		{
			OFFSET -0.087000 1.940000 -0.288900
			CHANNELS 3 Zrotation Yrotation Xrotation
			JOINT Spine1
			{
				OFFSET 0.000000 1.950000 0.060000
				CHANNELS 3 Zrotation Yrotation Xrotation
				JOINT Neck
				{
					OFFSET 0.000000 0.000000 0.000000
					CHANNELS 3 Zrotation Yrotation Xrotation
					JOINT Neck1
					{
						OFFSET 0.000000 1.600000 0.340000
						CHANNELS 3 Zrotation Yrotation Xrotation
						JOINT Head
						{
							OFFSET 0.000000 1.667000 -0.240000
							CHANNELS 3 Zrotation Yrotation Xrotation
							End Site
							{
								OFFSET 0.000000 0.000000 0.000000
							}
						}
					}
				}
				JOINT LeftShoulder
				{
					OFFSET 0.000000 0.000000 0.000000
					CHANNELS 3 Zrotation Yrotation Xrotation
					JOINT LeftArm
					{
						OFFSET 2.700000 1.550000 -0.730000
						CHANNELS 3 Zrotation Yrotation Xrotation
						JOINT LeftForeArm
						{
							OFFSET 5.450000 0.000000 0.000000
							CHANNELS 3 Zrotation Yrotation Xrotation
							JOINT LeftHand
							{
								OFFSET 3.450000 0.000000 0.000000
								CHANNELS 3 Zrotation Yrotation Xrotation
								JOINT LeftHandIndex1
								{
									OFFSET 0.750000 0.000000 0.000000
									CHANNELS 3 Zrotation Yrotation Xrotation
									End Site
									{
										OFFSET 0.000000 0.000000 0.000000
									}
								}
							}
						}
					}
				}
				JOINT RightShoulder
				{
					OFFSET 0.000000 0.000000 0.000000
					CHANNELS 3 Zrotation Yrotation Xrotation
					JOINT RightArm
					{
						OFFSET -2.700000 1.550000 -0.730000
						CHANNELS 3 Zrotation Yrotation Xrotation
						JOINT RightForeArm
						{
							OFFSET -5.450000 0.000000 0.000000
							CHANNELS 3 Zrotation Yrotation Xrotation
							JOINT RightHand
							{
								OFFSET -3.450000 0.000000 0.000000
								CHANNELS 3 Zrotation Yrotation Xrotation
								JOINT RightHandIndex1
								{
									OFFSET -0.750000 0.000000 0.000000
									CHANNELS 3 Zrotation Yrotation Xrotation
									End Site
									{
										OFFSET 0.000000 0.000000 0.000000
									}
								}
							}
						}
					}
				}
			}
		}
	}
}
MOTION
Frames: 10
Frame Time: 0.016667
-0.019370 18.178720 -1.845510 -7.438892 8.635982 3.054848 -15.194111 12.895515 2.632858 4.409066 -2.644263 -17.966085 -6.542302 5.377856 14.042815 -0.866187 3.901918 3.413484 0.220800 -0.311710 0.277420 18.401900 -9.170536 4.743584 -7.540397 10.241727 -44.854412 13.015690 -11.912316 41.707216 -0.701517 -6.589708 2.221337 -0.108920 0.366260 0.190240 -3.812742 -2.657802 -8.304497 13.979342 -5.828735 20.894375 -2.786608 -2.588143 -4.682360 2.997437 0.417836 -5.011669 -0.232464 -1.190195 26.479598 -4.679460 1.935760 -13.743410 -17.977929 7.971296 -1.826360 -47.758299 16.918791 -13.012187 -24.196433 6.533999 -5.140584 -3.978058 2.536146 0.802040 0.179370 -0.139370 0.166510 11.884783 -9.221989 1.283653 59.772928 -18.238958 -23.807549 11.654334 27.276520 -0.561660 1.902991 -1.037412 -0.460100 0.293350 0.097460 -0.366360 
-0.008220 18.135580 -1.785960 -6.778968 11.790487 3.612714 -15.242189 13.053436 2.819927 4.088712 -2.688697 -17.883861 -7.080005 5.174630 12.340340 -0.886285 3.831930 3.449175 0.217600 -0.298740 0.244180 18.293264 -9.511315 4.231999 -5.993212 8.185840 -41.777554 10.244364 -8.390596 32.102369 -0.255143 -4.573432 2.917338 -0.079610 0.400440 0.183690 -3.658046 -2.642946 -8.061318 11.941275 -5.178866 18.417554 -1.195935 -2.814419 -3.427802 2.624790 1.233574 -4.850186 1.058905 -2.174445 25.635144 -4.620730 1.073150 -11.908740 -16.518564 8.391733 -1.450660 -47.589407 17.865311 -13.535955 -24.251694 6.377279 -5.196260 -4.023299 2.556826 0.743810 0.226200 -0.187020 0.178710 11.456441 -10.181909 0.824127 59.364026 -19.124768 -23.395307 7.787775 24.074841 -1.285372 1.911910 -1.032295 -0.464590 0.290690 0.100990 -0.353860 
0.006570 18.071390 -1.722720 -5.890876 14.884628 4.511573 -15.329229 13.111512 2.923521 3.500237 -2.850110 -18.122488 -7.509416 5.130824 11.817115 -0.947531 3.875848 3.466333 0.241600 -0.267130 0.267270 18.193139 -9.708620 3.820880 -5.389497 6.466613 -39.317991 8.377102 -6.051014 23.523726 0.012071 -3.179661 3.420029 -0.010950 0.447350 0.172610 -3.443407 -2.635292 -7.772174 9.387715 -4.162903 15.187349 0.512160 -2.828844 -1.441561 2.449784 2.276697 -4.479219 2.811495 -3.980755 24.001834 -5.910470 -0.025920 -10.817810 -15.130433 8.751112 -1.289482 -47.256317 17.918739 -13.591560 -23.575935 6.288763 -5.110531 -4.086626 2.521469 0.703720 0.285470 -0.226500 0.201920 10.776769 -11.266122 0.413224 59.187569 -20.144817 -22.882013 4.316137 20.618171 -1.809743 1.911956 -1.031326 -0.507130 0.338500 0.084030 -0.358280 
0.019400 17.998180 -1.671990 -4.682843 17.823980 4.840246 -15.433097 13.217323 3.004563 2.727758 -2.932828 -17.745251 -7.725979 5.097223 11.543327 -0.924174 3.846004 3.446704 0.281750 -0.217420 0.273020 18.072699 -9.820030 3.521655 -5.759090 5.014180 -36.837133 7.136984 -4.637288 16.945414 0.123093 -2.406701 3.686743 0.006270 0.400570 0.187120 -3.165840 -2.801210 -7.608098 6.203836 -3.280036 13.716990 2.276268 -2.720726 -0.226720 2.012238 2.768928 -4.581503 3.422134 -5.390539 24.036012 -5.148040 -1.680880 -10.964210 -12.914999 8.973226 -0.832046 -47.283072 17.763637 -13.785871 -22.956966 6.005704 -4.961033 -4.065147 2.583988 0.683030 0.261730 -0.218740 0.193120 9.726558 -11.547860 0.353834 59.505064 -20.951540 -22.286070 1.366945 16.370074 -1.932302 1.984385 -1.030948 -0.456540 0.287710 0.073940 -0.349970 
0.037860 17.937960 -1.641010 -4.726495 20.657793 4.753000 -15.449489 13.199935 3.007002 2.811300 -2.947009 -17.774808 -7.749826 5.070146 11.417447 -0.950588 3.873757 3.427979 0.255040 -0.240510 0.231440 18.050259 -9.925394 3.379628 -5.556276 4.388469 -34.869925 6.222281 -3.864005 12.781283 0.182242 -2.087573 3.814072 0.004820 0.426410 0.198890 -3.158259 -2.668168 -7.514991 5.708001 -2.597439 12.773340 2.560013 -2.254719 0.662773 1.883790 3.421506 -4.737789 4.431961 -7.025354 24.007374 -4.927200 -3.367540 -10.594580 -12.361980 8.188860 -0.547071 -45.488502 17.075392 -13.105568 -21.966690 5.085141 -4.663146 -4.102324 2.579197 0.667230 0.284660 -0.241150 0.179470 9.420151 -11.206620 0.532738 60.055249 -21.931917 -21.600219 -1.404645 11.735416 -1.751503 2.036279 -0.997275 -0.457900 0.296970 0.118800 -0.342390 
0.059880 17.892480 -1.604560 -4.902629 23.087666 4.454894 -15.455166 13.143051 2.975176 2.653359 -2.896382 -17.589980 -7.461895 4.986926 11.318531 -1.015139 3.860134 3.425561 0.275150 -0.219490 0.252610 18.047654 -10.049798 3.282805 -5.234286 4.063719 -33.398350 5.479719 -3.513274 11.055277 0.201224 -2.013396 3.839304 0.046090 0.419770 0.189880 -3.186481 -2.399331 -7.402957 5.342789 -1.589520 11.880744 2.658385 -1.422357 1.532622 1.997966 4.554191 -4.715890 6.329815 -8.875526 23.805614 -5.355180 -4.648820 -10.463000 -13.023664 7.197739 -0.381844 -42.767693 16.734994 -12.477668 -20.866037 1.966089 -4.090900 -4.101858 2.578337 0.661970 0.297160 -0.257400 0.165140 9.867871 -10.957639 0.510133 60.202545 -22.487602 -20.425667 -3.807666 6.634739 -1.284579 2.097590 -1.006756 -0.474730 0.312230 0.127510 -0.361950 
0.076320 17.855130 -1.568210 -4.574785 25.585960 4.829033 -15.477522 13.020268 2.965709 2.095556 -3.182810 -18.489923 -7.473961 5.062703 12.170474 -1.117905 3.942355 3.428733 0.295680 -0.193900 0.243560 18.054570 -10.089163 3.194079 -5.478601 3.819641 -32.776212 5.474715 -3.434229 10.506597 0.226953 -2.089104 3.822710 0.128970 0.501490 0.159330 -3.175352 -2.188766 -7.217392 4.234800 -0.542443 10.211528 3.240041 -0.672886 2.483851 1.772222 5.298078 -4.226620 7.707702 -10.707303 22.664443 -5.296130 -6.505630 -9.549290 -13.779149 6.792353 -0.481044 -40.379133 15.842060 -11.569188 -18.888141 -1.357799 -3.410588 -4.142692 2.545777 0.634500 0.353820 -0.322350 0.194680 11.157790 -10.924833 -0.011803 59.756411 -22.283472 -18.746777 -6.771010 1.173966 -0.520779 2.136049 -1.067649 -0.543560 0.402770 0.139180 -0.361720 
0.062590 17.856300 -1.567010 -3.932243 27.771777 4.840439 -15.537337 13.034496 3.070567 1.428872 -3.753107 -20.124375 -7.339461 5.369851 14.722705 -1.193152 4.118796 3.358182 0.264900 -0.267830 0.263910 17.985909 -10.119291 3.140108 -5.483475 3.666765 -32.362598 5.211369 -3.556632 11.352855 0.226787 -2.117238 3.806752 0.112630 0.511450 0.149450 -3.013885 -2.263514 -7.219453 2.395176 0.478794 10.860995 4.200407 0.201036 2.051464 1.741083 5.963339 -4.232946 8.653141 -12.423472 23.005043 -5.964810 -7.685460 -9.995140 -13.890076 6.437790 -0.521574 -39.124213 15.023676 -11.259225 -16.456780 -5.745934 -2.692683 -4.143982 2.474259 0.703000 0.349650 -0.327280 0.165990 11.431912 -10.653797 -0.027941 60.104108 -21.910484 -18.174117 -8.197730 -1.716347 0.156932 2.153673 -1.029148 -0.605270 0.452690 0.183720 -0.404690 
0.042000 17.864380 -1.580540 -3.207033 30.134775 4.967099 -15.588933 12.978499 3.267246 1.219296 -4.667046 -22.457005 -7.994444 6.011901 18.153138 -1.184726 4.414925 3.214448 0.296100 -0.240830 0.328210 17.931461 -10.128676 3.089164 -5.375171 3.664604 -32.794661 4.583841 -3.804698 13.988802 0.198177 -2.192648 3.774357 0.127700 0.454090 0.122500 -2.881468 -2.299491 -7.289275 0.964926 1.172568 12.243157 4.489707 0.850697 1.111380 2.008447 6.762001 -4.201663 9.945064 -13.941675 23.050019 -6.628480 -8.194040 -11.242240 -14.152334 6.439398 -0.762402 -37.524361 14.421129 -11.297684 -14.192359 -11.421036 -1.945722 -4.071329 2.454313 0.752560 0.313100 -0.293150 0.149050 11.251603 -10.913617 -0.015251 60.471766 -21.514928 -17.980254 -8.509167 -2.203638 0.319638 2.154110 -1.002858 -0.618860 0.470850 0.159990 -0.440990 
0.005370 17.902060 -1.607270 -2.683405 32.227526 4.174413 -15.641742 12.913441 3.610950 2.560456 -5.824256 -24.893063 -10.481055 7.448243 22.217954 -1.114814 5.205396 2.877267 0.207280 -0.376380 0.342690 17.855222 -10.123452 3.012247 -4.956866 3.735052 -32.199557 3.990853 -4.145570 16.889524 0.164112 -2.282664 3.733477 0.044790 0.405170 0.071930 -2.725963 -2.415185 -7.551967 -0.086618 1.949649 15.539575 4.804960 1.795831 -0.453776 2.086519 7.186591 -4.749378 10.211272 -14.881543 25.137651 -6.191400 -8.784560 -13.323290 -13.910817 6.050488 -0.738108 -37.680641 14.307449 -12.369348 -11.318656 -18.682454 -1.393404 -3.981457 2.352292 0.892630 0.232710 -0.251610 0.077110 10.822273 -10.294663 0.589816 61.298144 -21.420841 -18.548246 -8.314464 -0.810549 0.299132 2.136006 -0.839388 -0.693880 0.521350 0.222700 -0.502950 
